<svg id="Layer_1" enable-background="new 0 0 511.942 511.942" height="512" viewBox="0 0 511.942 511.942" width="512" xmlns="http://www.w3.org/2000/svg"><g id="XMLID_254_"><g id="XMLID_4_"><path id="XMLID_5_" d="m36.26 36.261c-48.347 48.348-48.347 127.015 0 175.363 23.767 23.767 55.384 36.378 87.626 36.378 15.794 0 31.74-3.027 46.984-9.251 5.113-2.087 7.565-7.925 5.478-13.038-2.088-5.113-7.925-7.567-13.038-5.478-38.89 15.877-83.209 6.947-112.908-22.753-40.549-40.55-40.549-106.529 0-147.079 40.55-40.55 106.53-40.549 147.079 0 29.624 29.624 38.591 73.854 22.846 112.68-2.075 5.118.391 10.949 5.509 13.025 5.117 2.074 10.949-.391 13.025-5.509 18.771-46.289 8.08-99.02-27.238-134.338-48.348-48.347-127.015-48.348-175.363 0z"/><path id="XMLID_533_" d="m387.942 263.942c-68.374 0-124 55.626-124 124s55.626 124 124 124 124-55.626 124-124-55.626-124-124-124zm0 228c-57.346 0-104-46.654-104-104s46.654-104 104-104 104 46.654 104 104-46.654 104-104 104z"/><path id="XMLID_534_" d="m123.232 205.942c5.523 0 10-4.477 10-10v-7.591c17.095-4.238 28.055-18.796 30.469-33.151 3.138-18.665-6.612-34.889-24.838-41.331-10.561-3.733-22.254-8.253-28.907-13.471-2.515-1.973-3.597-6.131-2.755-10.595.828-4.397 3.806-9.726 9.678-11.495 13.54-4.079 22.239 3.292 22.605 3.61 1.799 1.739 4.219 2.774 6.919 2.774 5.523 0 10-4.477 10-10 0-2.99-1.436-5.773-3.516-7.606-1.404-1.225-8.543-7.029-19.654-9.187v-5.957c0-5.523-4.477-10-10-10s-10 4.477-10 10v6.626c-.701.179-1.408.374-2.122.589-12.089 3.642-21.118 13.965-23.563 26.941-2.242 11.898 1.615 23.407 10.066 30.036 7.197 5.645 17.216 10.452 34.584 16.591 12.78 4.518 12.496 14.903 11.78 19.159-1.423 8.465-8.542 17.612-20.812 17.694-11.354.086-15.196-.536-24.062-6.337-4.624-3.023-10.821-1.729-13.843 2.894-3.023 4.622-1.728 10.82 2.894 13.843 9.806 6.415 16.699 8.625 25.078 9.317v6.647c-.001 5.523 4.476 10 9.999 10z"/><path id="XMLID_535_" d="m430.925 440.976h-58.869c6.708-12.512 9.636-26.732 8.545-40.803h20.327c5.522 0 10-4.477 10-10s-4.478-10-10-10h-24.73c-1.245-3.341-2.738-6.619-4.496-9.804-.004-.008-.007-.017-.012-.025-1.969-3.655-3.01-7.689-3.01-11.665 0-13.497 10.98-24.478 24.478-24.478s24.478 10.98 24.478 24.478c0 5.523 4.478 10 10 10s10-4.477 10-10c0-24.525-19.952-44.478-44.478-44.478s-44.478 19.953-44.478 44.478c0 7.275 1.867 14.588 5.4 21.148.008.015.019.028.028.044.012.021.02.044.032.065.043.078.082.158.125.237h-9.307c-5.522 0-10 4.477-10 10s4.478 10 10 10h15.576c1.7 15.821-3.625 32.064-15.292 43.731-2.859 2.86-3.715 7.161-2.168 10.898 1.548 3.737 5.194 6.173 9.239 6.173h78.612c5.522 0 10-4.477 10-10s-4.477-9.999-10-9.999z"/><path id="XMLID_538_" d="m298.262 65.539c41.242 17.33 72.291 50.802 86.428 92.719l-12.246 3.282c-3.906 1.046-6.798 4.343-7.326 8.353-.528 4.009 1.409 7.942 4.911 9.965l67.16 38.804c1.534.886 3.262 1.341 5.003 1.341.867 0 1.736-.113 2.588-.341 2.563-.687 4.748-2.364 6.074-4.662l38.761-67.186c2.021-3.503 1.732-7.878-.729-11.086-2.463-3.208-6.619-4.618-10.521-3.57l-12.892 3.454c-10.83-31.408-32.264-57.695-61.149-74.718-31.73-18.698-68.874-24.125-104.591-15.282-4.184 1.036-7.232 4.636-7.566 8.933s2.123 8.325 6.095 9.994zm150.82 85.819c1.335 4.983 6.201 8.077 11.191 7.294l-21.742 37.687-37.673-21.767c2.115-.82 3.9-2.34 5.046-4.324 1.326-2.297 1.686-5.026.999-7.588-11.167-41.676-36.72-76.852-71.909-100.09 52.172.892 100.019 36.283 114.088 88.788z"/><path id="XMLID_902_" d="m213.622 432.345c-41.242-17.33-72.291-50.802-86.428-92.719l12.247-3.282c3.906-1.046 6.797-4.343 7.326-8.353.529-4.009-1.41-7.942-4.911-9.965l-67.161-38.804c-2.297-1.328-5.028-1.687-7.591-1s-4.748 2.364-6.074 4.662l-38.76 67.186c-2.021 3.503-1.733 7.878.729 11.086s6.612 4.619 10.521 3.57l12.891-3.454c10.831 31.408 32.263 57.695 61.149 74.718 21.791 12.841 46.13 19.424 70.813 19.423 11.257 0 22.591-1.371 33.778-4.141 4.184-1.036 7.233-4.636 7.566-8.933.334-4.298-2.122-8.325-6.095-9.994zm-150.82-85.819c-1.197-4.468-5.237-7.414-9.653-7.414-.509 0-1.023.039-1.538.12l21.742-37.687 37.673 21.767c-2.116.82-3.901 2.34-5.046 4.324-1.326 2.297-1.686 5.026-.999 7.588 11.167 41.676 36.72 76.852 71.909 100.09-52.172-.892-100.019-36.283-114.088-88.788z"/><path id="XMLID_1310_" d="m211.622 211.622c1.86-1.86 2.93-4.44 2.93-7.07s-1.07-5.21-2.93-7.07-4.43-2.93-7.07-2.93c-2.63 0-5.21 1.07-7.07 2.93s-2.93 4.44-2.93 7.07 1.07 5.21 2.93 7.07 4.44 2.93 7.07 2.93 5.21-1.07 7.07-2.93z"/><path id="XMLID_1311_" d="m152.886 67.086c.11.096-.034-.031 0 0z"/></g></g></svg>